<?xml version="1.0" encoding="utf-8"?>
<!-- Generator: Adobe Adobe Illustrator 24.2.0, SVG Export Plug-In . SVG Version: 6.00 Build 0)  -->
<svg version="1.1" xmlns="http://www.w3.org/2000/svg" xmlns:xlink="http://www.w3.org/1999/xlink" x="0px" y="0px"
	 viewBox="0 0 4988.98 935.43" style="enable-background:new 0 0 4988.98 935.43;" xml:space="preserve">
<style type="text/css">
	.st0{display:none;}
	.st1{display:inline;}
	.st2{fill:none;stroke:#381293;stroke-width:17;stroke-linecap:round;stroke-miterlimit:10;}
	.st3{fill:none;stroke:#E7DB2D;stroke-width:17;stroke-linecap:round;stroke-miterlimit:10;}
	.st4{fill:none;stroke:#FC2812;stroke-width:17;stroke-linecap:round;stroke-miterlimit:10;}
	.st5{fill:#FC2812;stroke:#FC2812;stroke-miterlimit:10;}
	.st6{fill:#FC2812;stroke:#FC2812;stroke-width:3;stroke-linecap:round;stroke-linejoin:round;stroke-miterlimit:10;}
	.st7{fill:#381293;stroke:#381293;stroke-miterlimit:10;}
	.st8{fill:#381293;stroke:#381293;stroke-width:3;stroke-linecap:round;stroke-linejoin:round;stroke-miterlimit:10;}
	.st9{fill:none;stroke:#381293;stroke-width:29;stroke-linecap:round;stroke-miterlimit:10;}
	.st10{fill:none;stroke:#E7DB2D;stroke-width:29;stroke-linecap:round;stroke-miterlimit:10;}
	.st11{fill:none;stroke:#FC2812;stroke-width:29;stroke-linecap:round;stroke-miterlimit:10;}
</style>
<g id="Layer_2" class="st0">
</g>
<g id="Layer_1">
	<g>
		<path d="M291.52,291.18h96.09v132.19h116.26V291.18h95.56V649h-95.56V507.25H387.61V649h-96.09V291.18z"/>
		<path d="M744.36,647.4V295.96c30.26-4.78,71.67-7.43,113.61-7.43c69.01,0,112.02,11.15,147.59,35.57
			c39.29,27.08,64.77,71.67,64.77,137.5c0,72.73-27.61,119.98-62.64,147.59c-39.29,30.26-98.21,44.06-167.76,44.06
			C793.74,653.24,762.94,650.06,744.36,647.4z M968.4,464.78c0-70.08-41.41-102.99-99.28-102.99c-14.87,0-23.89,1.06-29.2,2.12
			v213.42c5.31,1.06,13.8,1.06,20.7,1.06C922.74,579.45,968.4,545.47,968.4,464.78z"/>
		<path d="M1405.83,475.4c0-104.05,76.45-180.5,184.75-180.5c88.66,0,156.61,52.03,177.85,128.47h-57.33
			c-18.58-47.25-62.64-78.57-120.51-78.57c-76.98,0-130.07,55.21-130.07,130.6c0,75.39,53.09,130.6,130.07,130.6
			c57.87,0,101.93-31.32,120.51-78.57h57.33c-21.24,76.45-89.19,128.47-177.85,128.47C1482.28,655.9,1405.83,579.45,1405.83,475.4z"
			/>
		<path d="M1880.97,519.99c0-82.29,58.4-140.15,141.75-140.15c82.29,0,139.62,56.27,139.62,140.15v129h-46.19v-57.34
			c-17.52,42.47-56.27,64.24-101.93,64.24C1945.74,655.9,1880.97,606.52,1880.97,519.99z M2112.43,517.87
			c0-53.09-36.1-91.31-90.25-91.31s-90.25,38.22-90.25,91.31s36.1,91.31,90.25,91.31S2112.43,570.96,2112.43,517.87z"/>
		<path d="M2293.46,497.16c0-80.16,46.72-117.33,108.3-117.33c40.35,0,74.32,18.05,92.37,52.03c18.05-33.98,51.5-52.03,92.37-52.03
			c61.58,0,108.3,37.16,108.3,117.33V649h-50.43V497.16c0-48.84-26.01-70.61-62.64-70.61c-35.57,0-62.11,22.83-62.11,70.61V649
			h-50.43V497.16c0-47.78-27.08-70.61-62.64-70.61c-36.63,0-62.64,21.77-62.64,70.61V649h-50.43V497.16z"/>
		<path d="M2825.93,519.99c0-85.47,58.4-140.15,139.62-140.15c83.35,0,141.75,57.34,141.75,139.62
			c0,87.06-64.77,136.44-133.25,136.44c-42.47,0-78.57-19.11-97.68-53.09v158.2h-50.43V519.99z M3056.33,517.87
			c0-53.09-36.1-91.31-90.25-91.31c-53.62,0-89.72,38.22-89.72,91.31s36.1,91.31,89.72,91.31
			C3020.23,609.18,3056.33,570.96,3056.33,517.87z"/>
	</g>
	<g>
		<path d="M3465.2,443.5c-6.63,0-12.41-0.5-17.33-1.48c-4.93-0.98-9.23-2.37-12.9-4.17c-3.67-1.79-6.81-3.8-9.4-6.05
			c-2.6-2.24-4.97-4.52-7.12-6.85c-4.3,3.59-8.29,6.58-11.96,9c-3.67,2.42-7.44,4.39-11.29,5.91c-3.85,1.52-7.97,2.51-12.36,2.96
			c-4.39,0.45-9.45,0.67-15.18,0.67c-6.45,0-13.03-0.72-19.75-2.15c-6.72-1.43-12.81-3.85-18.27-7.25
			c-5.47-3.4-9.99-7.79-13.57-13.17c-3.58-5.37-5.37-11.82-5.37-19.35c0-5.91,0.94-11.06,2.82-15.45c1.88-4.39,4.43-8.2,7.66-11.42
			c3.22-3.22,7.08-5.91,11.55-8.06c4.48-2.15,9.31-3.94,14.51-5.37v-0.54c-5.55-1.79-10.34-4.97-14.38-9.54
			c-4.03-4.57-6.05-9.9-6.05-15.99c0-6.27,1.48-11.6,4.43-15.99c2.96-4.39,6.72-8.06,11.29-11.02s9.76-5.11,15.58-6.45
			c5.82-1.34,11.51-2.02,17.06-2.02c5.73,0,11.46,0.67,17.2,2.02c5.73,1.34,10.88,3.49,15.45,6.45s8.33,6.63,11.29,11.02
			c2.96,4.39,4.43,9.72,4.43,15.99c0,6.27-1.75,11.69-5.24,16.26c-3.49,4.57-7.3,7.57-11.42,9c2.33,1.61,4.21,3.54,5.64,5.78
			c1.43,2.24,2.69,4.48,3.76,6.72c1.07,2.24,2.06,4.39,2.96,6.45c0.89,2.06,1.97,3.72,3.22,4.97c2.69-4.84,5.82-9.31,9.4-13.44
			c3.58-4.12,7.16-7.75,10.75-10.88c3.58-3.13,6.85-5.64,9.81-7.52c2.96-1.88,5.15-3,6.58-3.36c0.89-0.36,1.7-0.76,2.42-1.21
			c0.71-0.45,1.08-1.03,1.08-1.75h2.69v41.38h-2.69c-0.36-1.07-0.94-2.33-1.75-3.76c-0.81-1.43-2.2-2.15-4.17-2.15
			c-2.15,0-4.21,0.9-6.18,2.69c-1.97,1.79-3.76,3.99-5.37,6.58c-1.61,2.6-3.05,5.24-4.3,7.93c-1.25,2.69-2.15,4.93-2.69,6.72
			c2.51,3.22,5.51,6.14,9,8.73c3.49,2.6,6.76,3.99,9.81,4.16c2.51,0,4.07-0.81,4.7-2.42c0.63-1.61,0.94-3.4,0.94-5.37h2.69V443.5z
			 M3340.25,397.82c0,4.48,0.98,8.33,2.96,11.55c1.97,3.22,4.57,5.82,7.79,7.79c3.22,1.97,6.76,3.4,10.61,4.3
			c3.85,0.9,7.66,1.34,11.42,1.34c3.58,0,7.03-0.58,10.34-1.75c3.31-1.16,6.31-2.64,9-4.43c2.69-1.79,4.88-3.8,6.58-6.05
			c1.7-2.24,2.73-4.52,3.09-6.85c-2.69-3.76-4.66-7.48-5.91-11.15c-1.25-3.67-2.69-6.99-4.3-9.94c-1.61-2.96-3.76-5.33-6.45-7.12
			c-2.69-1.79-6.81-2.69-12.36-2.69c-3.76,0-7.57,0.45-11.42,1.34c-3.85,0.9-7.39,2.33-10.61,4.3c-3.22,1.97-5.82,4.53-7.79,7.66
			C3341.23,389.27,3340.25,393.17,3340.25,397.82z M3375.18,319.63c-6.27,0-11.6,1.48-15.99,4.43c-4.39,2.96-6.58,7.57-6.58,13.84
			c0,6.27,2.19,10.88,6.58,13.84c4.39,2.96,9.72,4.43,15.99,4.43c6.27,0,11.6-1.48,15.99-4.43c4.39-2.96,6.58-7.57,6.58-13.84
			c0-6.27-2.2-10.88-6.58-13.84C3386.78,321.11,3381.45,319.63,3375.18,319.63z"/>
		<path d="M3593.63,333.33c0-2.69-2.24-4.03-6.72-4.03v-4.84h78.19c14.51,0,25.39,2.6,32.65,7.79c7.26,5.2,10.88,14.24,10.88,27.14
			c0,12.9-3.63,21.81-10.88,26.74c-7.25,4.93-18.14,7.39-32.65,7.39h-45.68v40.31c0,2.69,1.88,4.03,5.64,4.03v4.84h-38.16v-4.84
			c4.48,0,6.72-1.34,6.72-4.03V333.33z M3664.57,373.64c5.19,0,9.54-0.94,13.03-2.82s5.24-5.69,5.24-11.42
			c0-5.55-1.75-9.45-5.24-11.69c-3.49-2.24-7.84-3.36-13.03-3.36h-45.14v29.29H3664.57z"/>
		<path d="M3842.18,349.46c0-3.4-2.78-5.11-8.33-5.11h-65.56v26.87h41.38c3.04,0,5.28-0.22,6.72-0.67c1.43-0.44,2.15-1.65,2.15-3.63
			h4.84v28.48H3818c0.54-1.97-0.18-3.18-2.15-3.63c-1.97-0.45-4.75-0.67-8.33-0.67h-39.23v31.71h68.79c2.15,0,3.94-0.49,5.37-1.48
			c1.43-0.98,2.15-2.28,2.15-3.9h4.84v28.21h-4.84c0-1.61-0.72-2.51-2.15-2.69c-1.44-0.18-3.22-0.27-5.37-0.27h-98.62v-4.84
			c0.89,0,1.79-0.31,2.69-0.94c0.89-0.63,1.34-1.65,1.34-3.09v-100.5c0-1.43-0.45-2.46-1.34-3.09c-0.9-0.63-1.79-0.94-2.69-0.94
			v-4.84h95.39c5.55,0,8.33-1.61,8.33-4.84h4.84v29.83H3842.18z"/>
		<path d="M3914.19,437.86c0.89,0,1.79-0.31,2.69-0.94c0.89-0.63,1.34-1.65,1.34-3.09v-89.48h-34.93c-1.44,0-2.78,0.36-4.03,1.08
			c-1.25,0.72-1.88,1.88-1.88,3.49h-4.84v-30.9h4.84c0,2.51,0.63,4.21,1.88,5.11c1.25,0.9,2.59,1.34,4.03,1.34h95.66
			c1.43,0,2.77-0.45,4.03-1.34c1.25-0.89,1.88-2.59,1.88-5.11h4.84v30.9h-4.84c0-1.61-0.63-2.78-1.88-3.49
			c-1.26-0.71-2.6-1.08-4.03-1.08h-34.93v89.48c0,2.69,1.61,4.03,4.84,4.03v4.84h-34.66V437.86z"/>
		<path d="M4106.32,401.59c0,0.72-0.05,1.48-0.13,2.28c-0.09,0.81-0.13,1.66-0.13,2.55c0,2.69,1.7,5.15,5.11,7.39
			c3.4,2.24,7.48,4.12,12.23,5.64c4.74,1.52,9.49,2.73,14.24,3.63c4.74,0.9,8.46,1.34,11.15,1.34c2.51,0,5.6-0.18,9.27-0.54
			c3.67-0.36,7.3-1.12,10.88-2.28c3.58-1.16,6.62-2.78,9.14-4.84c2.51-2.06,3.76-4.79,3.76-8.2c0-3.94-2.2-6.81-6.58-8.6
			c-4.39-1.79-9.9-3.18-16.53-4.17c-6.63-0.98-13.8-1.97-21.5-2.96c-7.7-0.98-14.87-2.59-21.5-4.84
			c-6.63-2.24-12.14-5.46-16.53-9.67c-4.39-4.21-6.58-10.16-6.58-17.87c0-11.46,4.75-20.6,14.24-27.41
			c9.49-6.81,22.84-10.21,40.04-10.21c8.42,0,15.63,0.67,21.63,2.02c6,1.34,11.06,2.82,15.18,4.43c4.12,1.61,7.48,3.09,10.08,4.43
			c2.6,1.34,4.52,2.02,5.78,2.02c1.43,0,2.51-0.22,3.22-0.67c0.71-0.45,1.61-0.94,2.69-1.48l2.96,2.96l-13.43,25.26l-4.84-1.61
			c-0.18-1.08-0.36-2.15-0.54-3.22c-0.18-1.07-0.99-2.15-2.42-3.22c-3.59-3.04-9.14-5.64-16.66-7.79
			c-7.52-2.15-15.95-3.22-25.26-3.22c-3.59,0-6.99,0.23-10.21,0.67c-3.22,0.45-6.09,1.21-8.6,2.28c-2.51,1.07-4.48,2.46-5.91,4.17
			c-1.44,1.7-2.15,3.81-2.15,6.31c0,3.94,2.19,6.76,6.58,8.46c4.39,1.7,9.9,3.05,16.53,4.03c6.63,0.99,13.79,1.97,21.5,2.96
			c7.7,0.99,14.87,2.65,21.5,4.97c6.62,2.33,12.13,5.74,16.53,10.21c4.39,4.48,6.58,10.66,6.58,18.54c0,7.88-1.93,14.33-5.78,19.35
			c-3.85,5.02-8.64,8.96-14.38,11.82c-5.73,2.87-12.05,4.75-18.94,5.64c-6.9,0.89-13.39,1.34-19.48,1.34
			c-6.09,0-12.14-0.58-18.14-1.75c-6-1.16-11.46-2.51-16.39-4.03c-4.93-1.52-9.09-2.96-12.49-4.3c-3.41-1.34-5.47-2.02-6.18-2.02
			c-1.25,0-2.33,0.54-3.22,1.61l-3.76-2.69l12.36-30.1L4106.32,401.59z"/>
		<path d="M4277.48,433.83c0,1.44,0.4,2.46,1.21,3.09c0.81,0.63,1.75,0.94,2.82,0.94v4.84h-33.86v-4.84c1.08,0,2.02-0.31,2.82-0.94
			c0.81-0.63,1.21-1.65,1.21-3.09v-100.5c0-1.43-0.4-2.46-1.21-3.09c-0.81-0.63-1.75-0.94-2.82-0.94v-4.84h33.86v4.84
			c-1.07,0-2.02,0.31-2.82,0.94c-0.81,0.63-1.21,1.66-1.21,3.09v37.89h72.01v-37.89c0-1.43-0.4-2.46-1.21-3.09
			c-0.81-0.63-1.75-0.94-2.82-0.94v-4.84h33.86v4.84c-1.08,0-2.02,0.31-2.82,0.94c-0.81,0.63-1.21,1.66-1.21,3.09v100.5
			c0,1.44,0.4,2.46,1.21,3.09c0.81,0.63,1.75,0.94,2.82,0.94v4.84h-33.86v-4.84c1.08,0,2.02-0.31,2.82-0.94
			c0.81-0.63,1.21-1.65,1.21-3.09v-40.57h-72.01V433.83z"/>
		<path d="M4483.31,322.86c9.85,0,19.12,1.26,27.81,3.76c8.69,2.51,16.26,6.27,22.71,11.29c6.45,5.02,11.55,11.33,15.32,18.94
			c3.76,7.62,5.64,16.53,5.64,26.74c0,10.21-1.88,19.12-5.64,26.74c-3.76,7.62-8.87,13.93-15.32,18.94
			c-6.45,5.02-14.02,8.64-22.71,10.88c-8.69,2.24-17.96,3.36-27.81,3.36c-9.85,0-19.12-1.12-27.81-3.36
			c-8.69-2.24-16.26-5.87-22.71-10.88c-6.45-5.01-11.55-11.33-15.32-18.94c-3.76-7.61-5.64-16.53-5.64-26.74
			c0-10.21,1.88-19.12,5.64-26.74c3.76-7.61,8.87-13.93,15.32-18.94c6.45-5.01,14.01-8.77,22.71-11.29
			C4464.18,324.11,4473.45,322.86,4483.31,322.86z M4483.31,342.74c-5.73,0-11.33,0.94-16.79,2.82c-5.47,1.88-10.35,4.57-14.64,8.06
			c-4.3,3.49-7.75,7.75-10.35,12.76c-2.6,5.02-3.9,10.75-3.9,17.2c0,6.45,1.3,12.18,3.9,17.2c2.59,5.02,6.05,9.27,10.35,12.76
			c4.3,3.49,9.18,6.18,14.64,8.06c5.46,1.88,11.06,2.82,16.79,2.82c5.73,0,11.33-0.94,16.79-2.82c5.46-1.88,10.34-4.57,14.64-8.06
			c4.3-3.49,7.75-7.75,10.34-12.76c2.59-5.01,3.9-10.75,3.9-17.2c0-6.45-1.3-12.18-3.9-17.2c-2.6-5.01-6.05-9.27-10.34-12.76
			c-4.3-3.49-9.18-6.18-14.64-8.06C4494.64,343.68,4489.04,342.74,4483.31,342.74z"/>
		<path d="M4588.37,333.33c0-2.69-2.24-4.03-6.72-4.03v-4.84h78.19c14.51,0,25.39,2.6,32.65,7.79c7.25,5.2,10.88,14.24,10.88,27.14
			c0,12.9-3.63,21.81-10.88,26.74c-7.25,4.93-18.14,7.39-32.65,7.39h-45.68v40.31c0,2.69,1.88,4.03,5.64,4.03v4.84h-38.16v-4.84
			c4.48,0,6.72-1.34,6.72-4.03V333.33z M4659.31,373.64c5.19,0,9.54-0.94,13.03-2.82c3.49-1.88,5.24-5.69,5.24-11.42
			c0-5.55-1.75-9.45-5.24-11.69c-3.49-2.24-7.84-3.36-13.03-3.36h-45.14v29.29H4659.31z"/>
		<path d="M3616.34,586.51c0,0.72-0.05,1.48-0.13,2.28c-0.09,0.81-0.13,1.66-0.13,2.55c0,2.69,1.7,5.15,5.11,7.39
			c3.4,2.24,7.48,4.12,12.23,5.64c4.74,1.52,9.49,2.73,14.24,3.63c4.74,0.9,8.46,1.34,11.15,1.34c2.51,0,5.6-0.18,9.27-0.54
			c3.67-0.36,7.3-1.12,10.88-2.28c3.58-1.16,6.62-2.78,9.14-4.84c2.51-2.06,3.76-4.79,3.76-8.2c0-3.94-2.2-6.81-6.58-8.6
			c-4.39-1.79-9.9-3.18-16.53-4.17c-6.63-0.98-13.8-1.97-21.5-2.96c-7.7-0.98-14.87-2.59-21.5-4.84
			c-6.63-2.24-12.14-5.46-16.53-9.67c-4.39-4.21-6.58-10.16-6.58-17.87c0-11.46,4.75-20.6,14.24-27.41
			c9.49-6.81,22.84-10.21,40.04-10.21c8.42,0,15.63,0.67,21.63,2.02c6,1.34,11.06,2.82,15.18,4.43c4.12,1.61,7.48,3.09,10.08,4.43
			c2.59,1.34,4.52,2.02,5.78,2.02c1.43,0,2.51-0.22,3.22-0.67c0.71-0.45,1.61-0.94,2.69-1.48l2.96,2.96l-13.44,25.26l-4.84-1.61
			c-0.18-1.08-0.36-2.15-0.54-3.22c-0.18-1.07-0.99-2.15-2.42-3.22c-3.58-3.04-9.14-5.64-16.66-7.79
			c-7.52-2.15-15.95-3.22-25.26-3.22c-3.58,0-6.99,0.23-10.21,0.67c-3.22,0.45-6.09,1.21-8.6,2.28c-2.51,1.07-4.48,2.46-5.91,4.17
			c-1.44,1.7-2.15,3.81-2.15,6.31c0,3.94,2.19,6.76,6.58,8.46c4.39,1.7,9.9,3.05,16.53,4.03c6.63,0.99,13.79,1.97,21.5,2.96
			c7.7,0.99,14.87,2.65,21.5,4.97c6.62,2.33,12.13,5.74,16.53,10.21c4.39,4.48,6.58,10.66,6.58,18.54c0,7.88-1.93,14.33-5.78,19.35
			c-3.85,5.02-8.64,8.96-14.38,11.82c-5.74,2.87-12.05,4.75-18.94,5.64c-6.9,0.89-13.39,1.34-19.48,1.34
			c-6.09,0-12.14-0.58-18.14-1.75c-6-1.16-11.47-2.51-16.39-4.03c-4.93-1.52-9.09-2.96-12.5-4.3c-3.41-1.34-5.47-2.02-6.18-2.02
			c-1.25,0-2.33,0.54-3.22,1.61l-3.76-2.69l12.36-30.1L3616.34,586.51z"/>
		<path d="M3792.34,514.23c-3.94,0-5.91,1.34-5.91,4.03v61.53c0,8.6,3.13,15.5,9.4,20.69c6.27,5.2,15.85,7.79,28.75,7.79
			c12.9,0,22.48-2.59,28.75-7.79c6.27-5.19,9.4-12.09,9.4-20.69v-61.53c0-2.69-2.24-4.03-6.72-4.03v-4.84h37.35v4.84
			c-3.94,0-5.91,1.34-5.91,4.03v67.98c0,5.55-1.26,10.88-3.76,15.99c-2.51,5.11-6.31,9.63-11.42,13.57
			c-5.11,3.94-11.65,7.03-19.62,9.27c-7.97,2.24-17.33,3.36-28.08,3.36s-20.11-1.12-28.08-3.36c-7.97-2.24-14.51-5.33-19.62-9.27
			c-5.11-3.94-8.91-8.46-11.42-13.57c-2.51-5.11-3.76-10.43-3.76-15.99v-67.98c0-1.43-0.54-2.46-1.61-3.09
			c-1.08-0.63-3.14-0.94-6.18-0.94v-4.84h38.43V514.23z"/>
		<path d="M3936.09,518.26c0-2.69-2.24-4.03-6.72-4.03v-4.84h78.19c14.51,0,25.39,2.6,32.65,7.79c7.26,5.2,10.88,14.24,10.88,27.14
			c0,12.9-3.63,21.81-10.88,26.74c-7.25,4.93-18.14,7.39-32.65,7.39h-45.68v40.31c0,2.69,1.88,4.03,5.64,4.03v4.84h-38.16v-4.84
			c4.47,0,6.72-1.34,6.72-4.03V518.26z M4007.03,558.57c5.19,0,9.54-0.94,13.03-2.82c3.49-1.88,5.24-5.69,5.24-11.42
			c0-5.55-1.75-9.45-5.24-11.69c-3.49-2.24-7.84-3.36-13.03-3.36h-45.14v29.29H4007.03z"/>
		<path d="M4083.61,518.26c0-2.69-2.24-4.03-6.72-4.03v-4.84h78.19c14.51,0,25.39,2.6,32.65,7.79c7.25,5.2,10.88,14.24,10.88,27.14
			c0,12.9-3.63,21.81-10.88,26.74c-7.26,4.93-18.14,7.39-32.65,7.39h-45.68v40.31c0,2.69,1.88,4.03,5.64,4.03v4.84h-38.16v-4.84
			c4.48,0,6.72-1.34,6.72-4.03V518.26z M4154.55,558.57c5.19,0,9.54-0.94,13.03-2.82s5.24-5.69,5.24-11.42
			c0-5.55-1.75-9.45-5.24-11.69c-3.49-2.24-7.84-3.36-13.03-3.36h-45.14v29.29H4154.55z"/>
		<path d="M4265.79,509.4v4.84c-4.12,0-6.18,1.34-6.18,4.03v89.48h72.55c2.15,0,3.94-0.49,5.37-1.48c1.43-0.98,2.15-2.37,2.15-4.17
			h4.84v28.21h-4.84c0-1.44-0.72-2.24-2.15-2.42c-1.44-0.18-3.22-0.27-5.37-0.27h-105.33v-4.84c4.66,0,6.99-1.34,6.99-4.03v-100.5
			c0-2.69-2.33-4.03-6.99-4.03v-4.84H4265.79z"/>
		<path d="M4370.05,518.8c-1.25-1.61-2.78-2.77-4.57-3.49c-1.79-0.71-3.49-1.07-5.11-1.07v-4.84h44.34v4.84
			c-0.9,0-1.88,0.31-2.96,0.94c-1.08,0.63-1.61,1.48-1.61,2.55s0.36,2.06,1.08,2.96c0.71,0.9,1.52,1.97,2.42,3.22l27.14,35.47
			l23.91-33.32c1.61-2.33,2.82-4.07,3.63-5.24c0.81-1.16,1.21-2.28,1.21-3.36c0-1.43-0.45-2.33-1.34-2.69
			c-0.9-0.36-1.79-0.54-2.69-0.54v-4.84h41.11v4.84c-2.15,0-4.53,1.21-7.12,3.63c-2.6,2.42-4.88,4.88-6.85,7.39l-41.11,53.2v40.31
			c0,2.69,1.7,4.03,5.11,4.03v4.84h-35.74v-4.84c3.22,0,4.84-1.34,4.84-4.03v-41.38L4370.05,518.8z"/>
	</g>
</g>
<g id="Layer_3" class="st0">
</g>
<g id="Layer_4" class="st0">
</g>
</svg>
