<?xml version="1.0" encoding="utf-8"?>
<!-- Generator: Adobe Adobe Illustrator 24.2.0, SVG Export Plug-In . SVG Version: 6.00 Build 0)  -->
<svg version="1.1" xmlns="http://www.w3.org/2000/svg" xmlns:xlink="http://www.w3.org/1999/xlink" x="0px" y="0px"
	 width="1417.32px" height="1417.32px" viewBox="0 0 1417.32 1417.32" style="enable-background:new 0 0 1417.32 1417.32;"
	 xml:space="preserve">
<style type="text/css">
	.st0{display:none;}
	.st1{fill:none;stroke:#381293;stroke-width:17;stroke-linecap:round;stroke-miterlimit:10;}
	.st2{fill:none;stroke:#E7DB2D;stroke-width:17;stroke-linecap:round;stroke-miterlimit:10;}
	.st3{fill:none;stroke:#FC2812;stroke-width:17;stroke-linecap:round;stroke-miterlimit:10;}
	.st4{fill:#FC2812;stroke:#FC2812;stroke-miterlimit:10;}
	.st5{fill:#FC2812;stroke:#FC2812;stroke-width:3;stroke-linecap:round;stroke-linejoin:round;stroke-miterlimit:10;}
	.st6{fill:#381293;stroke:#381293;stroke-miterlimit:10;}
	.st7{fill:#381293;stroke:#381293;stroke-width:3;stroke-linecap:round;stroke-linejoin:round;stroke-miterlimit:10;}
	.st8{fill:none;stroke:#381293;stroke-width:29;stroke-linecap:round;stroke-miterlimit:10;}
	.st9{fill:none;stroke:#E7DB2D;stroke-width:29;stroke-linecap:round;stroke-miterlimit:10;}
	.st10{fill:none;stroke:#FC2812;stroke-width:29;stroke-linecap:round;stroke-miterlimit:10;}
</style>
<g id="Layer_2" class="st0">
</g>
<g id="Layer_1" class="st0">
</g>
<g id="Layer_3">
	<g>
		<g>
			<path class="st8" d="M1062.04,884.85c-65.94,123.72-194.54,207.71-342.39,207.71c-215.05,0-389.38-177.7-389.38-396.89
				c0-143.7,74.93-269.57,187.13-339.22"/>
			<path class="st9" d="M1155.2,641.44c2.11,17.77,3.19,35.87,3.19,54.22c0,246.98-196.43,447.2-438.74,447.2
				s-438.74-200.22-438.74-447.2c0-113.39,41.4-216.92,109.63-295.74"/>
			<path class="st10" d="M1186.76,843.91c-61.93,202.94-247.63,350.28-467.11,350.28c-270.12,0-489.1-223.2-489.1-498.53
				c0-219.62,139.33-406.07,332.8-472.54"/>
		</g>
		<g>
			<g>
				<path class="st4" d="M502.81,898.76c0,0-11.17,65.18,40.37,69.32c9.25,0.74,6.06-28.07,6.06-28.07L502.81,898.76z"/>
				<path class="st4" d="M602.18,786.14c0,0,66.03,1.81,60.01,53.1c-1.08,9.2-28.68,0.45-28.68,0.45L602.18,786.14z"/>
				<path class="st4" d="M778.35,896.44c0,0,11.46-20.74,15.9-20.96c16.16-0.81,25.79-13.4,28.3-11.63
					c3.55,2.5-4.16,15.65-7.17,18.77c-5.11,5.29-14.57,11.99-14.57,11.99L778.35,896.44z"/>
				<path class="st5" d="M933.27,828.24c0,0,56.67-60.06,52.36-93.59c-1.73-13.45-10.25-40.01-27.11-33.64
					C933.47,710.46,933.27,828.24,933.27,828.24z"/>
				<path class="st4" d="M923.73,781.23c0,0-34.77,146.43-202.16,109.13c-115.03-25.63-90.07-101.03-182.81-186.1
					c-39.34-36.09-72.47,5.1-80.01,57.22c-13.42,92.71,55.97,167.48,139.67,205.31c90.17,40.75,178.95,10.32,208.53-5.18
					C934.03,895.03,923.73,781.23,923.73,781.23z"/>
				<path class="st4" d="M788.12,970.39c0,0,20.07,12.8,24.1,10.87c14.65-7.05,29.2-0.56,30.57-3.32
					c1.93-3.91-11.18-11.82-15.34-13.12c-7.05-2.22-18.62-3.59-18.62-3.59L788.12,970.39z"/>
			</g>
			<g>
				<path class="st6" d="M936.5,439.3c0,0,11.17-65.18-40.37-69.32c-9.25-0.74-6.06,28.07-6.06,28.07L936.5,439.3z"/>
				<path class="st6" d="M837.13,551.91c0,0-66.03-1.81-60.01-53.1c1.08-9.2,28.68-0.45,28.68-0.45L837.13,551.91z"/>
				<path class="st6" d="M660.96,441.61c0,0-11.46,20.74-15.9,20.96c-16.16,0.81-25.79,13.4-28.3,11.63
					c-3.55-2.5,4.16-15.65,7.17-18.77c5.11-5.29,14.57-11.99,14.57-11.99L660.96,441.61z"/>
				<path class="st7" d="M506.04,509.81c0,0-56.67,60.06-52.36,93.59c1.73,13.45,10.25,40.01,27.11,33.64
					C505.84,627.59,506.04,509.81,506.04,509.81z"/>
				<path class="st6" d="M515.58,556.82c0,0,34.77-146.43,202.16-109.13c115.03,25.63,90.07,101.03,182.81,186.1
					c39.34,36.09,72.47-5.1,80.01-57.22c13.42-92.71-55.97-167.48-139.67-205.31c-90.17-40.75-178.95-10.32-208.53,5.18
					C505.28,443.02,515.58,556.82,515.58,556.82z"/>
				<path class="st6" d="M651.2,367.66c0,0-20.07-12.8-24.1-10.87c-14.65,7.05-29.2,0.56-30.57,3.32
					c-1.93,3.91,11.18,11.82,15.34,13.12c7.05,2.22,18.62,3.59,18.62,3.59L651.2,367.66z"/>
			</g>
		</g>
	</g>
</g>
<g id="Layer_4" class="st0">
</g>
</svg>
